<mxfile host="app.diagrams.net" agent="Mozilla/5.0 (Windows NT 10.0; Win64; x64) AppleWebKit/537.36 (KHTML, like Gecko) Chrome/127.0.0.0 Safari/537.36" version="24.7.7">
  <diagram name="P치gina-1" id="u-_F7jwiHvjF2n18kXxj">
    <mxGraphModel dx="1434" dy="772" grid="1" gridSize="10" guides="1" tooltips="1" connect="1" arrows="1" fold="1" page="1" pageScale="1" pageWidth="1169" pageHeight="827" math="0" shadow="0">
      <root>
        <mxCell id="0" />
        <mxCell id="1" parent="0" />
        <mxCell id="q9zzETnd1ToCVQPX5f-K-1" value="cliente" style="shape=umlActor;verticalLabelPosition=bottom;verticalAlign=top;html=1;outlineConnect=0;" parent="1" vertex="1">
          <mxGeometry x="30" y="325" width="30" height="60" as="geometry" />
        </mxCell>
        <mxCell id="q9zzETnd1ToCVQPX5f-K-2" value="registro usuario" style="ellipse;whiteSpace=wrap;html=1;" parent="1" vertex="1">
          <mxGeometry x="380" y="210" width="160" height="60" as="geometry" />
        </mxCell>
        <mxCell id="q9zzETnd1ToCVQPX5f-K-3" value="registrar datos de registro" style="ellipse;whiteSpace=wrap;html=1;" parent="1" vertex="1">
          <mxGeometry x="650" y="215" width="100" height="50" as="geometry" />
        </mxCell>
        <mxCell id="q9zzETnd1ToCVQPX5f-K-4" value="validar datos&amp;nbsp;" style="ellipse;whiteSpace=wrap;html=1;" parent="1" vertex="1">
          <mxGeometry x="340" y="355" width="110" height="50" as="geometry" />
        </mxCell>
        <mxCell id="q9zzETnd1ToCVQPX5f-K-20" value="guardar datos&amp;nbsp;" style="ellipse;whiteSpace=wrap;html=1;" parent="1" vertex="1">
          <mxGeometry x="680" y="355" width="120" height="80" as="geometry" />
        </mxCell>
        <mxCell id="q9zzETnd1ToCVQPX5f-K-27" value="" style="endArrow=none;html=1;rounded=0;" parent="1" target="q9zzETnd1ToCVQPX5f-K-28" edge="1">
          <mxGeometry width="50" height="50" relative="1" as="geometry">
            <mxPoint x="80" y="360" as="sourcePoint" />
            <mxPoint x="120" y="400" as="targetPoint" />
          </mxGeometry>
        </mxCell>
        <mxCell id="q9zzETnd1ToCVQPX5f-K-28" value="inicio de sesi칩n&amp;nbsp;" style="ellipse;whiteSpace=wrap;html=1;" parent="1" vertex="1">
          <mxGeometry x="140" y="359" width="140" height="55" as="geometry" />
        </mxCell>
        <mxCell id="q9zzETnd1ToCVQPX5f-K-32" value="registrar datos de inicio de sesi칩n&amp;nbsp;" style="ellipse;whiteSpace=wrap;html=1;" parent="1" vertex="1">
          <mxGeometry x="360" y="560" width="120" height="80" as="geometry" />
        </mxCell>
        <mxCell id="q9zzETnd1ToCVQPX5f-K-35" value="sistema" style="shape=umlActor;verticalLabelPosition=bottom;verticalAlign=top;html=1;outlineConnect=0;" parent="1" vertex="1">
          <mxGeometry x="840" y="375" width="30" height="60" as="geometry" />
        </mxCell>
        <mxCell id="q9zzETnd1ToCVQPX5f-K-36" value="ingreso a la pagina" style="ellipse;whiteSpace=wrap;html=1;" parent="1" vertex="1">
          <mxGeometry x="570" y="560" width="120" height="80" as="geometry" />
        </mxCell>
        <mxCell id="hEbnJiwseJN8VynylOqh-1" value="include" style="endArrow=classic;html=1;rounded=0;dashed=1;strokeColor=default;align=center;verticalAlign=middle;fontFamily=Helvetica;fontSize=11;fontColor=default;labelBackgroundColor=default;exitX=1;exitY=0.364;exitDx=0;exitDy=0;exitPerimeter=0;entryX=0;entryY=0.5;entryDx=0;entryDy=0;" parent="1" source="q9zzETnd1ToCVQPX5f-K-28" target="q9zzETnd1ToCVQPX5f-K-4" edge="1">
          <mxGeometry x="-0.0017" width="50" height="50" relative="1" as="geometry">
            <mxPoint x="470" y="330" as="sourcePoint" />
            <mxPoint x="520" y="280" as="targetPoint" />
            <mxPoint as="offset" />
          </mxGeometry>
        </mxCell>
        <mxCell id="hEbnJiwseJN8VynylOqh-6" value="extend" style="endArrow=classic;html=1;rounded=0;dashed=1;strokeColor=default;align=center;verticalAlign=middle;fontFamily=Helvetica;fontSize=11;fontColor=default;labelBackgroundColor=default;exitX=1;exitY=0.5;exitDx=0;exitDy=0;entryX=0;entryY=0.5;entryDx=0;entryDy=0;" parent="1" source="q9zzETnd1ToCVQPX5f-K-2" target="q9zzETnd1ToCVQPX5f-K-3" edge="1">
          <mxGeometry width="50" height="50" relative="1" as="geometry">
            <mxPoint x="430" y="414" as="sourcePoint" />
            <mxPoint x="520" y="414" as="targetPoint" />
          </mxGeometry>
        </mxCell>
        <mxCell id="hEbnJiwseJN8VynylOqh-8" value="extend" style="endArrow=classic;html=1;rounded=0;dashed=1;strokeColor=default;align=center;verticalAlign=middle;fontFamily=Helvetica;fontSize=11;fontColor=default;labelBackgroundColor=default;exitX=0.686;exitY=0.982;exitDx=0;exitDy=0;entryX=0.033;entryY=0.388;entryDx=0;entryDy=0;entryPerimeter=0;exitPerimeter=0;" parent="1" target="q9zzETnd1ToCVQPX5f-K-32" edge="1" source="q9zzETnd1ToCVQPX5f-K-28">
          <mxGeometry width="50" height="50" relative="1" as="geometry">
            <mxPoint x="200" y="535" as="sourcePoint" />
            <mxPoint x="350" y="590" as="targetPoint" />
          </mxGeometry>
        </mxCell>
        <mxCell id="hEbnJiwseJN8VynylOqh-9" value="extend" style="endArrow=classic;html=1;rounded=0;dashed=1;strokeColor=default;align=center;verticalAlign=middle;fontFamily=Helvetica;fontSize=11;fontColor=default;labelBackgroundColor=default;exitX=1;exitY=0.5;exitDx=0;exitDy=0;entryX=0;entryY=0.5;entryDx=0;entryDy=0;" parent="1" edge="1">
          <mxGeometry width="50" height="50" relative="1" as="geometry">
            <mxPoint x="480" y="599.5" as="sourcePoint" />
            <mxPoint x="570" y="599.5" as="targetPoint" />
          </mxGeometry>
        </mxCell>
        <mxCell id="R_exIY5UkO87msBNx269-2" value="enviar notificaci칩n email" style="ellipse;whiteSpace=wrap;html=1;" vertex="1" parent="1">
          <mxGeometry x="520" y="355" width="120" height="80" as="geometry" />
        </mxCell>
        <mxCell id="R_exIY5UkO87msBNx269-4" value="include" style="endArrow=classic;html=1;rounded=0;dashed=1;strokeColor=default;align=center;verticalAlign=middle;fontFamily=Helvetica;fontSize=11;fontColor=default;labelBackgroundColor=default;entryX=0.5;entryY=0;entryDx=0;entryDy=0;exitX=0.7;exitY=0.9;exitDx=0;exitDy=0;exitPerimeter=0;" edge="1" parent="1" source="q9zzETnd1ToCVQPX5f-K-3" target="q9zzETnd1ToCVQPX5f-K-20">
          <mxGeometry x="-0.0017" width="50" height="50" relative="1" as="geometry">
            <mxPoint x="700" y="359" as="sourcePoint" />
            <mxPoint x="767" y="260" as="targetPoint" />
            <mxPoint as="offset" />
          </mxGeometry>
        </mxCell>
        <mxCell id="R_exIY5UkO87msBNx269-5" value="include" style="endArrow=classic;html=1;rounded=0;dashed=1;strokeColor=default;align=center;verticalAlign=middle;fontFamily=Helvetica;fontSize=11;fontColor=default;labelBackgroundColor=default;entryX=0.65;entryY=-0.012;entryDx=0;entryDy=0;entryPerimeter=0;exitX=0;exitY=1;exitDx=0;exitDy=0;" edge="1" parent="1" source="q9zzETnd1ToCVQPX5f-K-3" target="R_exIY5UkO87msBNx269-2">
          <mxGeometry x="-0.0017" width="50" height="50" relative="1" as="geometry">
            <mxPoint x="560" y="355" as="sourcePoint" />
            <mxPoint x="627" y="256" as="targetPoint" />
            <mxPoint as="offset" />
          </mxGeometry>
        </mxCell>
        <mxCell id="R_exIY5UkO87msBNx269-7" value="extend" style="endArrow=classic;html=1;rounded=0;dashed=1;strokeColor=default;align=center;verticalAlign=middle;fontFamily=Helvetica;fontSize=11;fontColor=default;labelBackgroundColor=default;exitX=0.5;exitY=0;exitDx=0;exitDy=0;" edge="1" parent="1" source="q9zzETnd1ToCVQPX5f-K-4" target="q9zzETnd1ToCVQPX5f-K-2">
          <mxGeometry width="50" height="50" relative="1" as="geometry">
            <mxPoint x="400" y="354" as="sourcePoint" />
            <mxPoint x="510" y="354" as="targetPoint" />
          </mxGeometry>
        </mxCell>
        <mxCell id="R_exIY5UkO87msBNx269-9" value="" style="endArrow=none;html=1;rounded=0;entryX=0.5;entryY=0.5;entryDx=0;entryDy=0;entryPerimeter=0;" edge="1" parent="1" target="q9zzETnd1ToCVQPX5f-K-35">
          <mxGeometry width="50" height="50" relative="1" as="geometry">
            <mxPoint x="800" y="405" as="sourcePoint" />
            <mxPoint x="850" y="355" as="targetPoint" />
          </mxGeometry>
        </mxCell>
      </root>
    </mxGraphModel>
  </diagram>
</mxfile>
